<?xml version="1.0" encoding="UTF-8"?>
<svg width="512" height="512" viewBox="0 0 512 512" xmlns="http://www.w3.org/2000/svg" role="img" aria-labelledby="title desc">
    <title id="title">System Monitor UI Icon</title>
    <desc id="desc">Minimal system monitor window with colored usage meters and process rows on a soft circular background.</desc>

    <defs>
        <linearGradient id="g" x1="0" x2="1" y1="0" y2="1">
            <stop offset="0" stop-color="#18A0F0"/>
            <stop offset="1" stop-color="#5C55F8"/>
        </linearGradient>
    </defs>

    <!-- Soft circular backdrop -->
    <circle cx="256" cy="256" r="232" fill="url(#g)"/>

    <!-- Terminal window (centered) -->
    <g transform="translate(96,136)">
        <rect x="0" y="0" width="320" height="240" rx="12" fill="#071025" stroke="#0f1724" stroke-width="3"/>
        <!-- Top accent bar -->
        <rect x="0" y="0" width="320" height="36" rx="12" fill="#0b1a2a"/>
        <!-- control dots (subtle) -->
        <circle cx="22" cy="18" r="5" fill="#FF5C56"/>
        <circle cx="44" cy="18" r="5" fill="#FFBD2E"/>
        <circle cx="66" cy="18" r="5" fill="#27C93F"/>

        <!-- htop-style meters and process rows, simplified for icon scale -->
        <g opacity="0.96">
            <rect x="28" y="58" width="66" height="8" rx="4" fill="#18D26E"/>
            <rect x="100" y="58" width="118" height="8" rx="4" fill="#23D6E6"/>
            <rect x="224" y="58" width="42" height="8" rx="4" fill="#FFD166"/>
            <rect x="28" y="78" width="132" height="8" rx="4" fill="#18D26E"/>
            <rect x="166" y="78" width="56" height="8" rx="4" fill="#23D6E6"/>
            <rect x="228" y="78" width="36" height="8" rx="4" fill="#FF5C56"/>
            <rect x="28" y="102" width="264" height="10" rx="3" fill="#122B46"/>
            <rect x="28" y="102" width="46" height="10" rx="3" fill="#23D6E6"/>
            <rect x="86" y="104" width="82" height="6" rx="3" fill="#E6F2FF"/>
            <rect x="188" y="104" width="42" height="6" rx="3" fill="#98A8BD"/>
            <rect x="244" y="104" width="28" height="6" rx="3" fill="#FFD166"/>
            <rect x="28" y="128" width="244" height="8" rx="4" fill="#98A8BD"/>
            <rect x="28" y="152" width="206" height="8" rx="4" fill="#6EE7B7"/>
            <rect x="28" y="176" width="228" height="8" rx="4" fill="#98A8BD"/>
            <rect x="28" y="200" width="174" height="8" rx="4" fill="#23D6E6"/>
        </g>
    </g>

    <!-- Small sparkle to hint "UI" rendering (clean, single shape) -->
    <g transform="translate(378,82)" fill="#FFFFFF" opacity="0.92">
        <path d="M8 0l2.5 6.5L17 8l-6.5 1.5L8 17 6.5 9.5 0 8l6.5-1.5z"/>
    </g>
</svg>
